REM DIRINDEX 1\2\4,1\2\5,1\2\6,1\3\7,1\3\8,1\3\9,1\3\10
REM DIRNAME folder01,folder02,folder03,folder04,folder05,folder06,folder07,folder08,folder09,folder10
TITLE ""
FILE "b_138.mp3" MP3
  TRACK 01 AUDIO
    TITLE "0:"
    INDEX 01 00:00:00
  TRACK 02 AUDIO
    TITLE "7:cjc057_08561"
    INDEX 01 00:00:11
  TRACK 03 AUDIO
    TITLE "0:"
    INDEX 01 00:01:54
  TRACK 04 AUDIO
    TITLE "8:cjc057_08562"
    INDEX 01 00:02:12
  TRACK 05 AUDIO
    TITLE "0:"
    INDEX 01 00:04:72
  TRACK 06 AUDIO
    TITLE "7:cjc057_08563"
    INDEX 01 00:06:02
  TRACK 07 AUDIO
    TITLE "0:"
    INDEX 01 00:07:19
  TRACK 08 AUDIO
    TITLE "8:cjc057_08564"
    INDEX 01 00:07:52
  TRACK 09 AUDIO
    TITLE "0:"
    INDEX 01 00:11:11
  TRACK 10 AUDIO
    TITLE "7:cjc057_08565"
    INDEX 01 00:12:20
  TRACK 11 AUDIO
    TITLE "0:"
    INDEX 01 00:13:53
  TRACK 12 AUDIO
    TITLE "8:cjc057_08566"
    INDEX 01 00:14:11
  TRACK 13 AUDIO
    TITLE "0:"
    INDEX 01 00:16:28
  TRACK 14 AUDIO
    TITLE "7:cjc057_08567"
    INDEX 01 00:17:33
  TRACK 15 AUDIO
    TITLE "0:"
    INDEX 01 00:18:56
  TRACK 16 AUDIO
    TITLE "8:cjc057_08568"
    INDEX 01 00:19:13
  TRACK 17 AUDIO
    TITLE "0:"
    INDEX 01 00:22:25
  TRACK 18 AUDIO
    TITLE "7:cjc057_08569"
    INDEX 01 00:23:32
  TRACK 19 AUDIO
    TITLE "0:"
    INDEX 01 00:24:49
  TRACK 20 AUDIO
    TITLE "8:cjc057_08570"
    INDEX 01 00:25:07
  TRACK 21 AUDIO
    TITLE "0:"
    INDEX 01 00:28:41
  TRACK 22 AUDIO
    TITLE "7:cjc057_08571"
    INDEX 01 00:29:48
  TRACK 23 AUDIO
    TITLE "0:"
    INDEX 01 00:30:63
  TRACK 24 AUDIO
    TITLE "8:cjc057_08572"
    INDEX 01 00:31:22
  TRACK 25 AUDIO
    TITLE "0:"
    INDEX 01 00:32:33
  TRACK 26 AUDIO
    TITLE "7:cjc057_08573"
    INDEX 01 00:33:40
  TRACK 27 AUDIO
    TITLE "0:"
    INDEX 01 00:35:17
  TRACK 28 AUDIO
    TITLE "8:cjc057_08574"
    INDEX 01 00:35:47
  TRACK 29 AUDIO
    TITLE "0:"
    INDEX 01 00:37:61
  TRACK 30 AUDIO
    TITLE "7:cjc057_08575"
    INDEX 01 00:38:69
  TRACK 31 AUDIO
    TITLE "0:"
    INDEX 01 00:40:48
  TRACK 32 AUDIO
    TITLE "8:cjc057_08576"
    INDEX 01 00:41:04
  TRACK 33 AUDIO
    TITLE "0:"
    INDEX 01 00:42:61
  TRACK 34 AUDIO
    TITLE "7:cjc057_08577"
    INDEX 01 00:43:68
  TRACK 35 AUDIO
    TITLE "0:"
    INDEX 01 00:45:28
  TRACK 36 AUDIO
    TITLE "8:cjc057_08578"
    INDEX 01 00:45:61
  TRACK 37 AUDIO
    TITLE "0:"
    INDEX 01 00:47:56
  TRACK 38 AUDIO
    TITLE "7:cjc057_08579"
    INDEX 01 00:48:63
  TRACK 39 AUDIO
    TITLE "0:"
    INDEX 01 00:50:37
  TRACK 40 AUDIO
    TITLE "8:cjc057_08580"
    INDEX 01 00:50:64
  TRACK 41 AUDIO
    TITLE "0:"
    INDEX 01 00:53:04
  TRACK 42 AUDIO
    TITLE "7:cjc057_08581"
    INDEX 01 00:54:11
  TRACK 43 AUDIO
    TITLE "0:"
    INDEX 01 00:55:32
  TRACK 44 AUDIO
    TITLE "8:cjc057_08582"
    INDEX 01 00:55:65
  TRACK 45 AUDIO
    TITLE "0:"
    INDEX 01 00:58:38
  TRACK 46 AUDIO
    TITLE "7:cjc057_08583"
    INDEX 01 00:59:45
  TRACK 47 AUDIO
    TITLE "0:"
    INDEX 01 01:00:62
  TRACK 48 AUDIO
    TITLE "8:cjc057_08584"
    INDEX 01 01:01:21
  TRACK 49 AUDIO
    TITLE "0:"
    INDEX 01 01:03:04
  TRACK 50 AUDIO
    TITLE "7:cjc057_08585"
    INDEX 01 01:04:11
  TRACK 51 AUDIO
    TITLE "0:"
    INDEX 01 01:05:42
  TRACK 52 AUDIO
    TITLE "8:cjc057_08586"
    INDEX 01 01:05:71
  TRACK 53 AUDIO
    TITLE "0:"
    INDEX 01 01:08:50
  TRACK 54 AUDIO
    TITLE "7:cjc057_08587"
    INDEX 01 01:09:59
  TRACK 55 AUDIO
    TITLE "0:"
    INDEX 01 01:11:15
  TRACK 56 AUDIO
    TITLE "8:cjc057_08588"
    INDEX 01 01:11:49
  TRACK 57 AUDIO
    TITLE "0:"
    INDEX 01 01:15:01
  TRACK 58 AUDIO
    TITLE "7:cjc057_08589"
    INDEX 01 01:16:09
  TRACK 59 AUDIO
    TITLE "0:"
    INDEX 01 01:17:30
  TRACK 60 AUDIO
    TITLE "8:cjc057_08590"
    INDEX 01 01:17:61
  TRACK 61 AUDIO
    TITLE "0:"
    INDEX 01 01:21:61
  TRACK 62 AUDIO
    TITLE "7:cjc057_08591"
    INDEX 01 01:22:70
  TRACK 63 AUDIO
    TITLE "0:"
    INDEX 01 01:24:16
  TRACK 64 AUDIO
    TITLE "8:cjc057_08592"
    INDEX 01 01:24:47
  TRACK 65 AUDIO
    TITLE "0:"
    INDEX 01 01:28:02
  TRACK 66 AUDIO
    TITLE "7:cjc057_08593"
    INDEX 01 01:29:11
  TRACK 67 AUDIO
    TITLE "0:"
    INDEX 01 01:30:38
  TRACK 68 AUDIO
    TITLE "8:cjc057_08594"
    INDEX 01 01:30:71
  TRACK 69 AUDIO
    TITLE "0:"
    INDEX 01 01:34:06
  TRACK 70 AUDIO
    TITLE "7:cjc057_08595"
    INDEX 01 01:35:16
  TRACK 71 AUDIO
    TITLE "0:"
    INDEX 01 01:36:56
  TRACK 72 AUDIO
    TITLE "8:cjc057_08596"
    INDEX 01 01:37:13
  TRACK 73 AUDIO
    TITLE "0:"
    INDEX 01 01:38:36
  TRACK 74 AUDIO
    TITLE "7:cjc057_08597"
    INDEX 01 01:39:43
  TRACK 75 AUDIO
    TITLE "0:"
    INDEX 01 01:40:62
  TRACK 76 AUDIO
    TITLE "8:cjc057_08598"
    INDEX 01 01:41:16
  TRACK 77 AUDIO
    TITLE "0:"
    INDEX 01 01:42:53
  TRACK 78 AUDIO
    TITLE "7:cjc057_08599"
    INDEX 01 01:43:60
  TRACK 79 AUDIO
    TITLE "0:"
    INDEX 01 01:45:06
  TRACK 80 AUDIO
    TITLE "8:cjc057_08600"
    INDEX 01 01:45:38
  TRACK 81 AUDIO
    TITLE "0:"
    INDEX 01 01:48:34
  TRACK 82 AUDIO
    TITLE "7:cjc057_08601"
    INDEX 01 01:49:41
  TRACK 83 AUDIO
    TITLE "0:"
    INDEX 01 01:51:01
  TRACK 84 AUDIO
    TITLE "8:cjc057_08602"
    INDEX 01 01:51:34
  TRACK 85 AUDIO
    TITLE "0:"
    INDEX 01 01:54:33
  TRACK 86 AUDIO
    TITLE "7:cjc057_08603"
    INDEX 01 01:55:44
  TRACK 87 AUDIO
    TITLE "0:"
    INDEX 01 01:57:08
  TRACK 88 AUDIO
    TITLE "8:cjc057_08604"
    INDEX 01 01:57:39
  TRACK 89 AUDIO
    TITLE "0:"
    INDEX 01 02:00:24
  TRACK 90 AUDIO
    TITLE "7:cjc057_08605"
    INDEX 01 02:01:29
  TRACK 91 AUDIO
    TITLE "0:"
    INDEX 01 02:03:00
  TRACK 92 AUDIO
    TITLE "8:cjc057_08606"
    INDEX 01 02:03:34
  TRACK 93 AUDIO
    TITLE "0:"
    INDEX 01 02:06:12
  TRACK 94 AUDIO
    TITLE "7:cjc057_08607"
    INDEX 01 02:07:20
  TRACK 95 AUDIO
    TITLE "0:"
    INDEX 01 02:08:27
  TRACK 96 AUDIO
    TITLE "8:cjc057_08608"
    INDEX 01 02:08:60
  TRACK 97 AUDIO
    TITLE "0:"
    INDEX 01 02:10:67
  TRACK 98 AUDIO
    TITLE "7:cjc057_08609"
    INDEX 01 02:11:74
  TRACK 99 AUDIO
    TITLE "0:"
    INDEX 01 02:13:12
  TRACK 100 AUDIO
    TITLE "8:cjc057_08610"
    INDEX 01 02:13:46
  TRACK 101 AUDIO
    TITLE "0:"
    INDEX 01 02:14:65
  TRACK 102 AUDIO
    TITLE "7:cjc057_08611"
    INDEX 01 02:15:72
  TRACK 103 AUDIO
    TITLE "0:"
    INDEX 01 02:17:32
  TRACK 104 AUDIO
    TITLE "8:cjc057_08612"
    INDEX 01 02:17:65
  TRACK 105 AUDIO
    TITLE "0:"
    INDEX 01 02:19:54
  TRACK 106 AUDIO
    TITLE "7:cjc057_08613"
    INDEX 01 02:20:63
  TRACK 107 AUDIO
    TITLE "0:"
    INDEX 01 02:22:13
  TRACK 108 AUDIO
    TITLE "8:cjc057_08614"
    INDEX 01 02:22:47
  TRACK 109 AUDIO
    TITLE "0:"
    INDEX 01 02:24:42
  TRACK 110 AUDIO
    TITLE "7:cjc057_08615"
    INDEX 01 02:25:49
  TRACK 111 AUDIO
    TITLE "0:"
    INDEX 01 02:26:62
  TRACK 112 AUDIO
    TITLE "8:cjc057_08616"
    INDEX 01 02:27:20
  TRACK 113 AUDIO
    TITLE "0:"
    INDEX 01 02:28:57
